<?xml version="1.0" encoding="UTF-8"?>
<svg xmlns="http://www.w3.org/2000/svg" viewBox="0 0 200 60">
  <rect width="200" height="60" fill="#ffffff"/>
  <path fill="#004b8d" d="M32,25h4.5c1.9,0,3.5,0.4,4.7,1.2c1.2,0.8,1.8,2,1.8,3.6c0,2.2-1.1,3.6-3.4,4.3l4.9,6.9h-5.1l-3.9-6h-0.7v6h-2.8V25z M34.8,27.4v4.8h1.7c1.8,0,2.7-0.8,2.7-2.4c0-1.6-0.9-2.4-2.7-2.4H34.8z"/>
  <path fill="#004b8d" d="M46,30h4v10h-4V30z M46,25h4v3h-4V25z"/>
  <path fill="#004b8d" d="M52,25h4v6.5l3.8-4.5H64l-4,4.6l4.4,8.4h-4.1l-2.6-5.1l-1.7,1.9V40h-4V25z"/>
  <path fill="#f58220" d="M77,31.5c-1.4-1.1-2.8-1.7-4.3-1.7c-2.6,0-4.6,1.8-4.6,4.1c0,2.4,2,4.1,4.6,4.1c1.6,0,3-0.6,4.3-1.7v4.4 c-1.3,0.7-2.8,1.1-4.3,1.1c-4.8,0-8.6-3.1-8.6-7.8c0-4.7,3.9-7.8,8.6-7.8c1.6,0,3,0.4,4.3,1.1V31.5z"/>
  <path fill="#f58220" d="M83,34.2l-4.5-4.2h4.8l2.1,2l2.1-2h4.8l-4.5,4.2l4.8,5.8h-4.8l-2.5-3l-2.5,3h-4.8L83,34.2z"/>
  <path fill="#004b8d" d="M95,34.9c0-2.8,2.1-5,5.2-5c3,0,5.1,2.1,5.1,5.2c0,0.3,0,0.6-0.1,0.9h-6.6c0.2,0.9,1,1.5,2,1.5 c0.8,0,1.4-0.3,1.9-0.9l2.7,1.5c-0.9,1.3-2.6,2.1-4.5,2.1C97.3,40.2,95,38,95,34.9z M101.7,33.9c-0.2-0.9-0.9-1.5-1.8-1.5 c-0.9,0-1.5,0.6-1.8,1.5H101.7z"/>
  <path fill="#004b8d" d="M107,30h3.5v1.4c0.6-1,1.7-1.6,2.9-1.6c2.7,0,4.4,2.1,4.4,5.1c0,3.1-1.8,5.1-4.4,5.1c-1.3,0-2.3-0.6-2.9-1.6V43h-3.5 V30z M114.3,35c0-1.3-0.7-2.2-1.8-2.2c-1.1,0-1.8,0.9-1.8,2.2c0,1.3,0.7,2.2,1.8,2.2C113.5,37.2,114.3,36.3,114.3,35z"/>
  <path fill="#004b8d" d="M119,30h3.5v1.4c0.6-1,1.7-1.6,2.9-1.6c2.7,0,4.4,2.1,4.4,5.1c0,3.1-1.8,5.1-4.4,5.1c-1.3,0-2.3-0.6-2.9-1.6V43h-3.5 V30z M126.3,35c0-1.3-0.7-2.2-1.8-2.2c-1.1,0-1.8,0.9-1.8,2.2c0,1.3,0.7,2.2,1.8,2.2C125.5,37.2,126.3,36.3,126.3,35z"/>
  <path fill="#004b8d" d="M132,30h3.5v1.4c0.7-1,1.7-1.6,3-1.6c1.5,0,2.5,0.6,3,1.7c0.8-1.1,2-1.7,3.3-1.7c2.2,0,3.7,1.3,3.7,4v6.2H145v-5.6 c0-1.3-0.6-1.9-1.5-1.9c-0.9,0-1.5,0.6-1.5,1.9v5.6h-3.5v-5.6c0-1.3-0.6-1.9-1.5-1.9c-0.9,0-1.5,0.6-1.5,1.9v5.6h-3.5V30z"/>
</svg>