<?xml version="1.0" encoding="UTF-8"?>
<svg xmlns="http://www.w3.org/2000/svg" viewBox="0 0 200 60">
  <rect width="200" height="60" fill="#ffffff"/>
  <path fill="#0083ca" d="M51.5,21.7c-9.2,0-16.6,7.4-16.6,16.6c0,1.8,0.3,3.5,0.8,5.1h10.6C41.5,41.1,38,37,38,32.2c0-6.3,5.1-11.4,11.4-11.4 c6.3,0,11.4,5.1,11.4,11.4c0,1.5-0.3,3-0.8,4.3l7.5,0.5c0.3-1.4,0.5-2.9,0.5-4.5C68,29.1,60.6,21.7,51.5,21.7z"/>
  <path fill="#0083ca" d="M55.3,35.2c0,2.1-1.7,3.8-3.8,3.8c-2.1,0-3.8-1.7-3.8-3.8s1.7-3.8,3.8-3.8C53.6,31.4,55.3,33.1,55.3,35.2z"/>
  <path fill="#0083ca" d="M75,32.9c0-1.9,1.5-3.4,3.4-3.4c1.2,0,2.2,0.6,2.8,1.6l3.2-2.3c-1.3-1.9-3.5-3.2-6-3.2c-4,0-7.2,3.2-7.2,7.2 s3.2,7.2,7.2,7.2c2.5,0,4.7-1.3,6-3.2l-3.2-2.3c-0.6,0.9-1.6,1.6-2.8,1.6C76.5,36.3,75,34.8,75,32.9z"/>
  <path fill="#0083ca" d="M96.8,32.9c0-1.9-1.5-3.4-3.4-3.4c-1.9,0-3.4,1.5-3.4,3.4c0,1.9,1.5,3.4,3.4,3.4C95.3,36.3,96.8,34.8,96.8,32.9z M90,32.9 c0-1.9,1.5-3.4,3.4-3.4c1.9,0,3.4,1.5,3.4,3.4s-1.5,3.4-3.4,3.4C91.5,36.3,90,34.8,90,32.9z"/>
  <path fill="#0083ca" d="M110.1,32.9c0,3.9-3.2,7.2-7.2,7.2s-7.2-3.2-7.2-7.2s3.2-7.2,7.2-7.2S110.1,29,110.1,32.9z M106.3,32.9 c0-1.9-1.5-3.4-3.4-3.4c-1.9,0-3.4,1.5-3.4,3.4c0,1.9,1.5,3.4,3.4,3.4C104.8,36.3,106.3,34.8,106.3,32.9z"/>
  <path fill="#0083ca" d="M116.1,40.1V26.1h3.8v1.5c1-1.1,2.5-1.9,4.2-1.9v3.8c-0.2,0-0.5-0.1-0.8-0.1c-1.1,0-2.6,0.6-3.4,1.5v9.1H116.1z"/>
  <path fill="#0083ca" d="M139.2,33.3v6.9h-3.8v-1.7c-0.8,1.2-2.5,2.1-4.5,2.1c-3.5,0-6.3-2.8-6.3-7.2c0-4.3,2.9-7.2,6.3-7.2c1.9,0,3.6,0.8,4.5,2.1 v-1.7h3.8V33.3z M135.4,33.3c0-2.2-1.6-3.8-3.6-3.8c-2,0-3.6,1.6-3.6,3.8c0,2.2,1.6,3.8,3.6,3.8C133.8,37.1,135.4,35.5,135.4,33.3z"/>
  <path fill="#0083ca" d="M141,32.9c0-4.3,3.1-7.2,7.2-7.2c4.1,0,7.2,2.9,7.2,7.2c0,4.3-3.1,7.2-7.2,7.2C144.1,40.1,141,37.2,141,32.9z M151.5,32.9c0-2.2-1.4-3.8-3.4-3.8c-2,0-3.4,1.6-3.4,3.8c0,2.2,1.4,3.8,3.4,3.8C150.2,36.7,151.5,35.1,151.5,32.9z"/>
  <path fill="#0083ca" d="M165.2,26.1h3.8v14.1h-3.8v-1.7c-1,1.3-2.7,2.1-4.5,2.1c-3.5,0-6.3-2.8-6.3-7.2c0-4.4,2.9-7.2,6.3-7.2 c1.9,0,3.6,0.8,4.5,2.1V26.1z M158.2,33.3c0,2.2,1.6,3.8,3.6,3.8c2,0,3.6-1.6,3.6-3.8c0-2.2-1.6-3.8-3.6-3.8 C159.8,29.5,158.2,31.1,158.2,33.3z"/>
</svg>