<?xml version="1.0" encoding="UTF-8"?>
<svg xmlns="http://www.w3.org/2000/svg" viewBox="0 0 200 60">
  <rect width="200" height="60" fill="#ffffff"/>
  <path fill="#23b397" d="M32.5,19.5c-3.3,0-6,2.7-6,6s2.7,6,6,6s6-2.7,6-6S35.8,19.5,32.5,19.5z M32.5,28.5c-1.7,0-3-1.3-3-3s1.3-3,3-3s3,1.3,3,3S34.2,28.5,32.5,28.5z"/>
  <path fill="#23b397" d="M46.5,19.5c-3.3,0-6,2.7-6,6s2.7,6,6,6s6-2.7,6-6S49.8,19.5,46.5,19.5z M46.5,28.5c-1.7,0-3-1.3-3-3s1.3-3,3-3s3,1.3,3,3S48.2,28.5,46.5,28.5z"/>
  <path fill="#23b397" d="M39.5,34.5c-3.3,0-6,2.7-6,6s2.7,6,6,6s6-2.7,6-6S42.8,34.5,39.5,34.5z M39.5,43.5c-1.7,0-3-1.3-3-3s1.3-3,3-3s3,1.3,3,3S41.2,43.5,39.5,43.5z"/>
  <path fill="#1e3653" d="M60.5,22h3.6v12.6h-3.6V33c-1,1.3-2.5,2-4.2,2c-3.3,0-6-2.8-6-6.3s2.7-6.3,6-6.3c1.7,0,3.2,0.7,4.2,2V22z M53.9,28.7c0,1.7,1.3,3,3,3c1.7,0,3-1.3,3-3s-1.3-3-3-3C55.2,25.7,53.9,27,53.9,28.7z"/>
  <path fill="#1e3653" d="M66.3,22h3.6v2c0.8-1.4,2.3-2.2,3.9-2.2v3.8c-0.3-0.1-0.6-0.1-0.9-0.1c-1.5,0-3,1.2-3,3.7v5.4h-3.6V22z"/>
  <path fill="#1e3653" d="M84.5,22h3.6v12.6h-3.6V33c-1,1.3-2.5,2-4.2,2c-3.3,0-6-2.8-6-6.3s2.7-6.3,6-6.3c1.7,0,3.2,0.7,4.2,2V22z M77.9,28.7c0,1.7,1.3,3,3,3c1.7,0,3-1.3,3-3s-1.3-3-3-3C79.2,25.7,77.9,27,77.9,28.7z"/>
  <path fill="#1e3653" d="M90.3,28.7c0-3.5,2.7-6.3,6.3-6.3c3.6,0,6.3,2.8,6.3,6.3s-2.7,6.3-6.3,6.3C93,35,90.3,32.2,90.3,28.7z M99.4,28.7c0-1.7-1.3-3-2.9-3c-1.6,0-2.9,1.3-2.9,3s1.3,3,2.9,3C98.1,31.7,99.4,30.4,99.4,28.7z"/>
  <path fill="#1e3653" d="M105.1,22h3.6v1.9c0.9-1.3,2.4-2.1,4-2.1c3.1,0,5.1,2.1,5.1,5.5v7.3h-3.6v-6.5c0-1.8-0.9-2.9-2.6-2.9c-1.6,0-2.9,1.2-2.9,3.1v6.3h-3.6V22z"/>
  <path fill="#1e3653" d="M121.8,24.3h-1.9V22h1.9v-3.8h3.6V22h3.4v2.3h-3.4v5.4c0,1,0.5,1.6,1.4,1.6c0.7,0,1.4-0.3,1.9-0.7v2.7c-0.9,0.5-1.9,0.8-2.9,0.8c-2.3,0-4-1.5-4-4.3V24.3z"/>
  <path fill="#1e3653" d="M139.1,30.1h-8.8c0.3,1.5,1.7,2.6,3.4,2.6c1.2,0,2.3-0.5,3-1.3l2.3,1.3c-1.2,1.8-3.2,2.8-5.3,2.8c-3.6,0-6.3-2.8-6.3-6.3s2.7-6.3,6.3-6.3c3.2,0,5.8,2.8,5.8,6.3C139.3,29.4,139.2,29.7,139.1,30.1z M130.3,27.6h5.5c-0.5-1.3-1.6-2-2.7-2C131.9,25.6,130.8,26.3,130.3,27.6z"/>
</svg>