<?xml version="1.0" encoding="UTF-8"?>
<svg xmlns="http://www.w3.org/2000/svg" viewBox="0 0 200 60">
  <rect width="200" height="60" fill="#ffffff"/>
  <path fill="#0070ba" d="M35,24h4v17h-4V24z"/>
  <path fill="#0070ba" d="M43,30h4v2c0.7-1.5,2.1-2.3,4-2.3c3,0,4.5,2,4.5,5.3v6h-4v-5.3c0-1.5-0.6-2.3-1.9-2.3c-1.3,0-2.1,0.9-2.1,2.5 v5h-4V30z"/>
  <path fill="#0070ba" d="M58,36.5V33h-1.5v-3H58v-3.5h4V30h2.5v3H62v2.4c0,0.7,0.3,1,1,1h1.5v3c-0.5,0.3-1.3,0.5-2.3,0.5 C59.7,40,58,39,58,36.5z"/>
  <path fill="#0070ba" d="M70,30h4v1.5c0.7-1.1,1.9-1.8,3.5-1.8v4c-0.2,0-0.5-0.1-0.9-0.1c-1.5,0-2.6,0.9-2.6,2.7v4.6h-4V30z"/>
  <path fill="#0070ba" d="M78,35c0-3.1,2.5-5.3,5.9-5.3c3.4,0,5.9,2.2,5.9,5.3c0,3.1-2.5,5.3-5.9,5.3C80.5,40.3,78,38.1,78,35z M85.8,35 c0-1.2-0.8-2-1.9-2c-1.1,0-1.9,0.8-1.9,2c0,1.2,0.8,2,1.9,2C85,37,85.8,36.2,85.8,35z"/>
</svg>