<?xml version="1.0" encoding="UTF-8"?>
<svg xmlns="http://www.w3.org/2000/svg" viewBox="0 0 200 60">
  <rect width="200" height="60" fill="#ffffff"/>
  <path fill="#007780" d="M33,25.5l2.6,8.8h0.1l2.7-8.8h3.1l-4.3,13h-3.1l-4.3-13H33z"/>
  <path fill="#007780" d="M44.3,30c0.3-0.4,0.8-0.7,1.4-0.7c0.6,0,1.1,0.2,1.4,0.7c0.3,0.4,0.5,1,0.5,1.7c0,0.7-0.2,1.3-0.5,1.7 c-0.3,0.4-0.8,0.7-1.4,0.7c-0.6,0-1.1-0.2-1.4-0.7c-0.3-0.4-0.5-1-0.5-1.7C43.8,31,44,30.4,44.3,30z"/>
  <path fill="#007780" d="M47.3,25.5h2.5v5.8c0.3-0.4,0.7-0.8,1.2-1c0.5-0.2,1-0.4,1.6-0.4c1.1,0,2,0.3,2.6,1c0.6,0.7,0.9,1.6,0.9,2.9v4.6 h-2.5v-4.1c0-0.7-0.1-1.2-0.4-1.6c-0.3-0.3-0.7-0.5-1.3-0.5c-0.6,0-1.1,0.2-1.4,0.6c-0.3,0.4-0.5,1-0.5,1.8v3.8h-2.5V25.5z"/>
  <path fill="#007780" d="M65.1,32.6h-6.8c0.1,0.6,0.3,1,0.7,1.3c0.3,0.3,0.8,0.4,1.3,0.4c0.8,0,1.4-0.3,1.8-0.8l2,1 c-0.4,0.6-0.9,1.1-1.5,1.4c-0.6,0.3-1.4,0.5-2.2,0.5c-1.3,0-2.4-0.4-3.2-1.2c-0.8-0.8-1.2-1.8-1.2-3.1c0-1.3,0.4-2.3,1.2-3.1 c0.8-0.8,1.8-1.2,3-1.2c1.2,0,2.2,0.4,3,1.1c0.8,0.8,1.1,1.8,1.1,3.1C65.3,32.1,65.2,32.3,65.1,32.6z M58.4,31h4.4 c-0.1-0.5-0.3-0.9-0.6-1.2c-0.3-0.3-0.7-0.4-1.2-0.4c-0.5,0-0.9,0.1-1.3,0.4C59.3,30.1,59,30.5,58.4,31z"/>
  <path fill="#007780" d="M67.9,30c0.6-0.7,1.4-1,2.4-1c1,0,1.8,0.3,2.4,1c0.6,0.7,0.9,1.6,0.9,2.9c0,1.2-0.3,2.2-0.9,2.9 c-0.6,0.7-1.4,1-2.4,1c-1,0-1.8-0.3-2.4-1c-0.6-0.7-0.9-1.6-0.9-2.9C67,31.6,67.3,30.7,67.9,30z M69.5,34.1c0.2,0.3,0.5,0.4,0.9,0.4 c0.4,0,0.7-0.1,0.9-0.4c0.2-0.3,0.3-0.7,0.3-1.2c0-0.5-0.1-0.9-0.3-1.2c-0.2-0.3-0.5-0.4-0.9-0.4c-0.4,0-0.7,0.1-0.9,0.4 c-0.2,0.3-0.3,0.7-0.3,1.2C69.2,33.4,69.3,33.8,69.5,34.1z"/>
  <path fill="#007780" d="M77,30.7c-0.4,0-0.7,0.1-0.9,0.4c-0.2,0.3-0.3,0.7-0.3,1.2v6.1h-2.5v-9.3h2.5v0.9c0.2-0.3,0.5-0.6,0.8-0.8 c0.3-0.2,0.7-0.3,1.1-0.3c0.1,0,0.2,0,0.2,0c0,0,0.1,0,0.3,0v2.1C77.7,30.8,77.3,30.7,77,30.7z"/>
  <path fill="#007780" d="M82,30.6c-0.5,0-0.9,0.2-1.2,0.5c-0.3,0.3-0.4,0.8-0.4,1.3v6.1h-2.5v-9.3h2.5v1.2c0.4-0.8,1.1-1.3,2.1-1.3 c0.3,0,0.5,0,0.8,0.1v2.2C82.9,30.8,82.5,30.6,82,30.6z"/>
  <path fill="#007780" d="M84,25.5h2.5v3.3c0.3-0.5,0.7-0.9,1.2-1.1c0.5-0.3,1-0.4,1.6-0.4c1.2,0,2.1,0.4,2.8,1.2c0.7,0.8,1,1.8,1,3 c0,1.3-0.4,2.3-1.1,3.1c-0.7,0.8-1.7,1.2-2.9,1.2c-0.5,0-1-0.1-1.4-0.3c-0.4-0.2-0.8-0.5-1.2-1v1.1H84V25.5z M88.6,30.7 c-0.6,0-1,0.2-1.3,0.6c-0.3,0.4-0.5,0.9-0.5,1.6c0,0.6,0.2,1.1,0.5,1.5c0.3,0.4,0.8,0.6,1.3,0.6c0.6,0,1-0.2,1.3-0.6 c0.3-0.4,0.5-0.9,0.5-1.6c0-0.6-0.2-1.1-0.5-1.5C89.6,30.9,89.2,30.7,88.6,30.7z"/>
  <path fill="#007780" d="M101.7,32.9H95c0.1,0.5,0.3,0.9,0.7,1.2c0.4,0.3,0.8,0.4,1.4,0.4c0.8,0,1.4-0.3,1.8-0.8l2,1 c-0.4,0.6-0.9,1.1-1.5,1.4c-0.6,0.3-1.4,0.5-2.3,0.5c-1.3,0-2.4-0.4-3.2-1.2c-0.8-0.8-1.2-1.8-1.2-3.1c0-1.3,0.4-2.3,1.2-3.1 c0.8-0.8,1.8-1.2,3.1-1.2c1.2,0,2.3,0.4,3,1.1c0.8,0.8,1.1,1.8,1.1,3.1C101.9,32.5,101.8,32.7,101.7,32.9z M95,31.3h4.4 c-0.1-0.5-0.3-0.9-0.6-1.2c-0.3-0.3-0.7-0.4-1.2-0.4c-0.5,0-0.9,0.1-1.3,0.4C95.9,30.4,95.6,30.8,95,31.3z"/>
  <path fill="#007780" d="M109.9,29.4c0.7,0.3,1.3,0.7,1.7,1.3c0.4,0.6,0.6,1.3,0.6,2.1c0,0.8-0.2,1.5-0.6,2.1c-0.4,0.6-1,1-1.7,1.3 c-0.7,0.3-1.5,0.5-2.4,0.5c-1.3,0-2.5-0.4-3.4-1.1l1-1.7c0.8,0.6,1.6,0.9,2.4,0.9c0.6,0,1.1-0.1,1.5-0.4c0.4-0.3,0.6-0.6,0.6-1.1 c0-0.5-0.2-0.8-0.6-1.1c-0.4-0.3-0.9-0.4-1.5-0.4c-0.8,0-1.6,0.2-2.2,0.7l-1.5-0.7l0.3-5.5h6.9v2.2h-4.6l-0.1,1.6 c0.5-0.2,1.1-0.3,1.7-0.3C108.3,28.9,109.1,29.1,109.9,29.4z"/>
  <path fill="#007780" d="M116.5,29c0.9-0.1,1.7-0.2,2.2-0.2c1.2,0,2,0.3,2.6,0.9c0.6,0.6,0.9,1.4,0.9,2.5v6.2h-2.5v-5.8 c0-0.6-0.1-1-0.4-1.3c-0.2-0.3-0.6-0.4-1.1-0.4c-0.3,0-0.7,0-1.2,0.1l-0.5,0.1V38.5h-2.5V30.6c0.5-0.4,1.1-0.7,1.8-1 C116,29.4,116.2,29.2,116.5,29z"/>
  <path fill="#007780" d="M131.7,32.2h-2.5v6.2h-2.6V32.2h-1.4v-1.9h1.4v-3.2h2.6v3.2h2.5V32.2z"/>
  <path fill="#007780" d="M140,32.6h-6.8c0.1,0.6,0.3,1,0.7,1.3c0.3,0.3,0.8,0.4,1.3,0.4c0.8,0,1.4-0.3,1.8-0.8l2,1 c-0.4,0.6-0.9,1.1-1.5,1.4c-0.6,0.3-1.4,0.5-2.2,0.5c-1.3,0-2.4-0.4-3.2-1.2c-0.8-0.8-1.2-1.8-1.2-3.1c0-1.3,0.4-2.3,1.2-3.1 c0.8-0.8,1.8-1.2,3-1.2c1.2,0,2.2,0.4,3,1.1c0.8,0.8,1.1,1.8,1.1,3.1C140.2,32.1,140.1,32.3,140,32.6z M133.3,31h4.4 c-0.1-0.5-0.3-0.9-0.6-1.2c-0.3-0.3-0.7-0.4-1.2-0.4c-0.5,0-0.9,0.1-1.3,0.4C134.2,30.1,133.9,30.5,133.3,31z"/>
  <path fill="#007780" d="M147.2,29.8c0.5,0.6,0.8,1.5,0.8,2.8v5.8h-2.5v-5.4c0-0.7-0.1-1.2-0.4-1.6c-0.3-0.3-0.7-0.5-1.2-0.5 c-0.6,0-1,0.2-1.4,0.7c-0.3,0.4-0.5,1.1-0.5,1.9v4.9h-2.5v-9.3h2.5v1.2c0.3-0.4,0.7-0.8,1.1-1c0.5-0.2,1-0.4,1.5-0.4 C145.8,28.9,146.6,29.2,147.2,29.8z"/>
</svg>