<?xml version="1.0" encoding="UTF-8"?>
<svg xmlns="http://www.w3.org/2000/svg" viewBox="0 0 200 60">
  <rect width="200" height="60" fill="#ffffff"/>
  <path fill="#00A287" d="M42.4,18.5h10.3c6.2,0,10.9,4.2,10.9,10.5c0,6.3-4.7,10.5-10.9,10.5H42.4V18.5z M52.3,34.2c3.3,0,5.7-2.1,5.7-5.2 c0-3.1-2.4-5.2-5.7-5.2h-4.5v10.4H52.3z"/>
  <path fill="#00A287" d="M69.5,18.5h5.4v8.8h9.1v-8.8h5.4v21h-5.4v-7.5h-9.1v7.5h-5.4V18.5z"/>
  <path fill="#00A287" d="M95.6,18.5h15.1v4.4h-9.7v4.1h8.3v4.1h-8.3v4h9.9v4.4H95.6V18.5z"/>
  <path fill="#00A287" d="M117.9,18.5h5.4v16.6h8.9v4.4h-14.3V18.5z"/>
  <path fill="#00A287" d="M143.3,18.5h5.4v21h-5.4V18.5z"/>
  <path fill="#00A287" d="M154.3,29c0-6.2,4.8-10.9,11.1-10.9c6.3,0,11.1,4.6,11.1,10.9c0,6.2-4.8,10.9-11.1,10.9 C159.1,39.9,154.3,35.2,154.3,29z M170.6,29c0-3.2-2.2-5.6-5.2-5.6c-2.9,0-5.2,2.4-5.2,5.6c0,3.2,2.2,5.6,5.2,5.6 C168.4,34.6,170.6,32.2,170.6,29z"/>
</svg>