<?xml version="1.0" encoding="UTF-8"?>
<svg xmlns="http://www.w3.org/2000/svg" viewBox="0 0 200 60">
  <rect width="200" height="60" fill="#ffffff"/>
  <path fill="#005bac" d="M30,20h50v20H30V20z"/>
  <path fill="#ffffff" d="M39.6,33.5c0,1.8-1.5,3.2-3.4,3.2c-1.9,0-3.4-1.4-3.4-3.2v-6.8h2.1v6.7c0,0.7,0.6,1.3,1.3,1.3c0.7,0,1.3-0.6,1.3-1.3 v-6.7h2.1V33.5z"/>
  <path fill="#ffffff" d="M40.5,26.7h2.1v2c0.7-1.4,2.2-2.2,3.8-2.2v2.3c-0.2,0-0.4-0.1-0.6-0.1c-1.8,0-3.2,1.5-3.2,3.4v4.4h-2.1V26.7z"/>
  <path fill="#ffffff" d="M48.5,26.7h1.7l0.2,1.5c0.7-1.1,1.9-1.8,3.2-1.8c1.3,0,2.4,0.6,3.1,1.6c0.8-1,1.9-1.6,3.2-1.6c2.2,0,3.9,1.8,3.9,4.1 v5.9h-2.1v-5.5c0-1.2-0.9-2.2-2.1-2.2c-1.2,0-2.1,1-2.1,2.2v5.5h-2.1v-5.5c0-1.2-0.9-2.2-2.1-2.2c-1.2,0-2.1,1-2.1,2.2v5.5h-2.1V26.7z"/>
  <path fill="#ffffff" d="M65.8,32.1c0-2.7,2.2-4.9,4.9-4.9c2.8,0,4.9,2.2,4.9,4.9c0,2.7-2.2,4.9-4.9,4.9C68,37.1,65.8,34.8,65.8,32.1z M73.5,32.1 c0-1.6-1.3-2.8-2.8-2.8c-1.6,0-2.8,1.3-2.8,2.8c0,1.6,1.3,2.8,2.8,2.8C72.3,35,73.5,33.7,73.5,32.1z"/>
  <path fill="#ffffff" d="M77.1,32.1c0-2.7,2.2-4.9,4.9-4.9c1.6,0,3.1,0.8,4,2.1l-1.7,1c-0.5-0.8-1.4-1.3-2.3-1.3c-1.6,0-2.8,1.3-2.8,2.8 c0,1.6,1.3,2.8,2.8,2.8c1,0,1.8-0.5,2.3-1.3l1.7,1c-0.9,1.3-2.4,2.1-4,2.1C79.3,36.6,77.1,34.8,77.1,32.1z"/>
</svg>