<?xml version="1.0" encoding="UTF-8"?>
<svg xmlns="http://www.w3.org/2000/svg" viewBox="0 0 200 60">
  <rect width="200" height="60" fill="#ffffff"/>
  <path fill="#007a33" d="M33,18h40v25.5H33V18z"/>
  <path fill="#ffffff" d="M59.5,26.5h-4.1v10.8H52V26.5h-4.1v-3.2h11.6V26.5z"/>
  <path fill="#ffffff" d="M71.8,31.9c0,3.4-2.2,5.7-5.3,5.7c-3.1,0-5.3-2.3-5.3-5.7c0-3.4,2.2-5.7,5.3-5.7C69.6,26.2,71.8,28.5,71.8,31.9z M64.5,31.9c0,1.8,0.9,2.9,2,2.9c1.1,0,2-1.1,2-2.9c0-1.8-0.9-2.9-2-2.9C65.4,29,64.5,30.1,64.5,31.9z"/>
</svg>