<?xml version="1.0" encoding="UTF-8" standalone="no"?>
<svg xmlns="http://www.w3.org/2000/svg" width="300" height="100" viewBox="0 0 300 100" fill="none">
  <g>
    <path d="M30 15 C 22 15, 15 22, 15 30 L 15 70 C 15 78, 22 85, 30 85 L 50 85 C 58 85, 65 78, 65 70 L 65 30 C 65 22, 58 15, 50 15 L 30 15 Z M 30 25 L 50 25 C 52.5 25, 55 27.5, 55 30 L 55 70 C 55 72.5, 52.5 75, 50 75 L 30 75 C 27.5 75, 25 72.5, 25 70 L 25 30 C 25 27.5, 27.5 25, 30 25 Z" fill="white"/>
    <path d="M 35 30 L 25 50 L 35 70 L 45 50 Z" fill="white"/>
    <path d="M 80 30 L 80 70 L 90 70 L 90 55 L 100 55 C 105 55, 110 50, 110 45 L 110 40 C 110 35, 105 30, 100 30 L 80 30 Z M 90 40 L 100 40 L 100 45 L 90 45 L 90 40 Z" fill="white"/>
    <path d="M 120 30 L 120 70 L 150 70 C 155 70, 160 65, 160 60 L 160 55 C 160 50, 155 48, 150 48 C 155 48, 160 45, 160 40 L 160 35 C 160 32, 155 30, 150 30 L 120 30 Z M 130 40 L 150 40 L 150 45 L 130 45 L 130 40 Z M 130 55 L 150 55 L 150 60 L 130 60 L 130 55 Z" fill="white"/>
    <path d="M 170 30 L 170 70 L 180 70 L 180 55 L 190 70 L 200 70 L 190 55 L 200 30 L 190 30 L 180 45 L 180 30 L 170 30 Z" fill="white"/>
    <path d="M 210 30 L 210 70 L 220 70 L 220 55 L 230 55 C 235 55, 240 50, 240 45 L 240 40 C 240 35, 235 30, 230 30 L 210 30 Z M 220 40 L 230 40 L 230 45 L 220 45 L 220 40 Z" fill="white"/>
    <path d="M 250 30 L 250 70 L 260 70 L 260 30 L 250 30 Z" fill="white"/>
    <path d="M 120 80 L 120 85 L 170 85 L 170 80 L 120 80 Z" fill="white"/>
    <text x="90" y="95" font-family="Arial, sans-serif" font-size="14" fill="white">Capital Solutions</text>
  </g>
</svg>