<?xml version="1.0" encoding="UTF-8"?>
<svg width="100" height="100" viewBox="0 0 100 100" xmlns="http://www.w3.org/2000/svg">
  <!-- Shield Icon -->
  <g transform="translate(10, 5)">
    <!-- Shield shape -->
    <path d="M40,5 C47,5 55,5 62,8 C62,30 62,50 62,70 C45,78 30,85 20,90 C10,85 -5,78 -20,70 C-20,50 -20,30 -20,8 C-13,5 -5,5 2,5 L40,5 Z" 
          fill="white" stroke="#002968" stroke-width="5"/>
    
    <!-- Lightning bolt with integrated chart bars -->
    <path d="M15,25 L32,60 L27,60 L40,25" 
          stroke="#002968" stroke-width="4.5" fill="none" stroke-linecap="round" stroke-linejoin="round"/>
    
    <!-- Small chart bars integrated with the lightning design -->
    <rect x="12" y="65" width="6" height="12" fill="#002968"/>
    <rect x="22" y="60" width="6" height="17" fill="#002968"/>
    <rect x="32" y="55" width="6" height="22" fill="#002968"/>
  </g>
</svg>